<?xml version="1.0" encoding="utf-8"?>
<!-- Generator: Adobe Illustrator 22.0.1, SVG Export Plug-In . SVG Version: 6.00 Build 0)  -->
<svg version="1.1" id="Layer_1" xmlns="http://www.w3.org/2000/svg" xmlns:xlink="http://www.w3.org/1999/xlink" x="0px" y="0px"
	 viewBox="0 0 800.6 756.4" style="enable-background:new 0 0 800.6 756.4;" xml:space="preserve">
<g>
	<path d="M493.8,0c18.3,76.3-5.5,139.8-58.6,193.6c81.2,85.1,104.9,182.4,64.8,293.9c-44,100.9-121.5,154.7-231,164.9
		c0.8,2.4,1.7,5.3,2.8,8.2c11.8,29.7,31.7,50.2,64.4,55.7c20.8,3.5,41.5,2.4,62.1-1.9c80.9-16.8,151.7-86.2,170-166.7
		c6.7-29.7,7.6-59.8,4.9-90c-1.6-18.2-4.5-36.4-5.7-54.6c-0.6-9.2,0-18.8,2-27.7c5.2-22.8,21.5-35.6,42.2-43.6
		c12.4-4.8,25.5-6.1,38.7-6.8c1.6-0.1,3.3-0.2,5.3-0.3c0-19.1,0-38.1,0-58.2c48.5,22.5,96.2,44.6,144.9,67.2
		c-48.4,29.1-96.1,57.8-144.5,86.9c0-19.8,0-38.5,0-58c-16.2,0.4-31.8,0.7-44.6,11.6c-6.4,5.4-8.8,13-8.1,21.2
		c1.3,14.1,3.1,28.1,4.8,42.2c7.1,59.3,4.1,117.6-23.2,171.8c-40.9,81.1-107.2,128.9-196.6,144.4c-23.2,4-46.5,3.7-69.4-2.3
		c-38.7-10.1-64.1-35.2-79.1-71.6c-3.5-8.6-6-17.6-8.7-26.5c-0.7-2.4-1.6-3.5-4.3-3.8C117.3,635.7,26.1,552,5.2,439.8
		c-16.7-89.4,6.9-168.2,69-235.1c1-1.1,2-2.2,3.1-3.3C16.6,147.1-13.2,82.2,6.8,0c1.1,7.7,1.8,15.6,3.4,23.2
		c9,41.9,31.9,75.3,63.4,103.4c15,13.4,31.5,24.6,48.8,34.7c2.7,1.6,4.6,1.3,7.2-0.2c40.6-23.7,84.5-35.6,131.5-35.3
		c43.1,0.3,83.7,10.8,121.5,31.5c2.1,1.2,3.9,2.5,6.7,0.7c37.8-23.9,68.8-54.1,88.2-95c9-19,14.4-39,15.8-60
		C493.5,1.9,493.7,1,493.8,0z M457.8,281.1c-64.1,34.7-127.2,68.9-190.6,103.2c19.1,16.4,55.7,33.6,81.7,38.6
		c40.4,7.8,70.9-7.2,88.7-44.1C452.5,348.3,455.9,315.3,457.8,281.1z M243,384.6c-60.9-34.7-120.9-68.8-182.5-103.8
		c1.8,16.9,3,32.3,5.3,47.5c3.3,22.2,9.1,43.7,21.3,63c14.7,23.2,35.6,35.2,63.3,33.4C185.5,422.3,214.4,405.1,243,384.6z
		 M255.2,533.4c29.3,0,58.7,0,88,0c2,0,4,0,6-0.4c6.2-1.3,10.5-6.7,10.4-12.9c-0.1-6.2-4.5-11.5-10.7-12.7c-1.9-0.4-4-0.4-6-0.4
		c-58,0-116,0-174,0c-2.2,0-4.4,0-6.5,0.4c-5.2,1-8.5,4.3-9.9,9.4c-2.4,8.9,4,16.4,14.1,16.5C196.2,533.4,225.7,533.3,255.2,533.4z"
		/>
	<path d="M310.5,379.9c0.1-10,8-17.7,18-17.5c9.6,0.2,17.2,8.1,17.2,17.8c0,10-7.9,17.8-17.8,17.7
		C317.9,397.9,310.4,390,310.5,379.9z"/>
	<path d="M165.7,358.6c9.8-0.1,17.7,7.8,17.8,17.6c0.1,9.8-7.8,18-17.4,18.1c-9.7,0.1-17.7-7.9-17.7-17.7
		C148.3,366.7,156,358.7,165.7,358.6z"/>
</g>
</svg>
